<?xml version="1.0" encoding="UTF-8" standalone="no"?>
<!-- Created with Inkscape (http://www.inkscape.org/) -->

<svg
   width="210mm"
   height="297mm"
   viewBox="0 0 210 297"
   version="1.1"
   id="svg1"
   inkscape:version="1.3.2 (091e20e, 2023-11-25, custom)"
   sodipodi:docname="DocumentationDoctor.svg"
   xmlns:inkscape="http://www.inkscape.org/namespaces/inkscape"
   xmlns:sodipodi="http://sodipodi.sourceforge.net/DTD/sodipodi-0.dtd"
   xmlns="http://www.w3.org/2000/svg"
   xmlns:svg="http://www.w3.org/2000/svg">
  <sodipodi:namedview
     id="namedview1"
     pagecolor="#ffffff"
     bordercolor="#000000"
     borderopacity="0.25"
     inkscape:showpageshadow="2"
     inkscape:pageopacity="0.0"
     inkscape:pagecheckerboard="0"
     inkscape:deskcolor="#d1d1d1"
     inkscape:document-units="mm"
     inkscape:zoom="0.72426347"
     inkscape:cx="138.76166"
     inkscape:cy="304.44722"
     inkscape:window-width="1920"
     inkscape:window-height="1009"
     inkscape:window-x="1912"
     inkscape:window-y="-8"
     inkscape:window-maximized="1"
     inkscape:current-layer="layer2" />
  <defs
     id="defs1" />
  <g
     inkscape:groupmode="layer"
     id="layer3"
     inkscape:label="Layer 3">
    <path
       d="m 100.0001,30.000236 a 85,85 0 0 0 -84.999982,84.999984 85,85 0 0 0 21.424532,56.03947 65,75 0 0 1 63.57545,-60.09504 65,75 0 0 1 63.65813,59.99737 85,85 0 0 0 21.34185,-55.9418 85,85 0 0 0 -84.99998,-84.999984 z"
       style="stroke-width:0.264583;fill:#c084fc;fill-opacity:1"
       id="path6" />
  </g>
  <g
     inkscape:groupmode="layer"
     id="layer2"
     inkscape:label="Layer 2">
    <circle
       style="fill:#313638;stroke-width:0.264583;fill-opacity:1"
       id="path4-2"
       cx="100"
       cy="115"
       r="75" />
    <path
       style="fill:#f8f8ff;stroke-width:0.264583;fill-opacity:1"
       id="path13"
       d="m 48.324994,72.859984 c 0.140502,-0.05825 0.270693,-0.155009 0.421503,-0.17476 0.294629,-0.03859 0.809728,0.113482 1.070591,0.215675 0.180195,0.07059 0.691235,0.347774 0.52292,0.252256 -3.184332,-1.807019 -3.691768,-2.339633 -2.521551,-1.246047 0.684268,0.851024 0.777817,1.923635 0.841989,2.97252 0.03689,0.390287 0.06618,0.850921 0.160274,1.233294 0.482973,1.962671 2.210295,2.258404 4.200245,3.261421 0.167981,0.08467 0.374692,-0.03394 0.562041,-0.05091 1.255083,-0.272185 2.234702,-1.081003 3.174915,-1.90591 1.167387,-1.198113 1.559007,-2.871809 2.162598,-4.384336 0.666674,-1.26188 1.012609,-2.698084 1.946474,-3.798367 0.942237,-0.833069 2.292064,-0.814922 3.48483,-0.874289 0.620654,-0.04332 1.223092,-0.02127 1.807622,0.211879 0.175819,0.07012 0.671682,0.349194 0.50649,0.256778 -3.143494,-1.758641 -3.71665,-2.409809 -2.603429,-1.273937 0.604864,0.864055 0.644485,1.923941 0.685837,2.94146 0.04678,1.228275 -0.02717,2.458008 0.03678,3.685217 0.236837,2.78093 1.28411,2.322391 4.326599,3.88039 0.86129,-0.565515 1.506953,-1.454817 2.157812,-2.246622 0,0 -3.359089,-2.014715 -3.359089,-2.014715 v 0 c -0.336767,0.40603 -1.337318,1.679919 -1.79973,1.884926 -0.06553,0.02905 -0.140804,0.02696 -0.211204,0.04044 1.075788,0.628388 2.151573,1.256776 3.227361,1.885164 -0.247457,-0.06958 -0.311589,-0.04674 -0.479113,-0.29414 -0.269851,-0.39852 -0.290152,-0.9189 -0.350081,-1.376021 -0.105351,-1.220599 -0.0045,-2.447552 -0.03822,-3.671387 -0.03343,-1.083051 -0.06369,-2.192264 -0.571473,-3.177209 -1.16676,-1.588672 -0.305454,-0.530104 -4.103473,-2.701952 -0.286512,-0.163838 -0.849051,-0.284303 -1.163577,-0.319865 -0.391946,-0.04431 -0.863957,-0.01011 -1.254294,0.0053 -1.295969,0.09546 -2.704537,0.153561 -3.667189,1.139867 -0.926952,1.161341 -1.318654,2.602971 -1.972744,3.921604 -0.584147,1.451801 -0.964086,3.066211 -2.096206,4.208436 -0.883137,0.758846 -1.819346,1.538841 -3.024391,1.652524 -1.500042,-0.276717 -1.313135,-0.300866 2.466242,1.735534 0.146396,0.07888 -0.212984,-0.257413 -0.296503,-0.401216 -0.301805,-0.519647 -0.361108,-1.099442 -0.401296,-1.687002 -0.05409,-1.113925 -0.128201,-2.245863 -0.726554,-3.222718 -1.28574,-1.540182 -0.391879,-0.566325 -4.192211,-2.701742 -0.699122,-0.392838 -1.578878,-0.373293 -2.266749,0.0024 z" />
    <path
       style="fill:#f8f8ff;stroke-width:0.264583;fill-opacity:1"
       id="path14"
       d="m 129.83391,68.790443 c 0.87389,-0.717399 1.76259,-1.42001 2.66379,-2.10312 0.21407,-0.162263 0.41331,-0.349818 0.65098,-0.474987 0.20177,-0.10626 0.43392,-0.140423 0.65088,-0.210635 0.55955,-0.02514 0.65126,-0.102338 1.15588,0.142364 0.15236,0.07388 0.56903,0.365175 0.41793,0.288753 -1.01216,-0.511932 -1.9544,-1.16881 -3.0047,-1.597091 -0.16996,-0.06931 0.19429,0.312952 0.2679,0.4811 0.0764,0.174466 0.12003,0.361489 0.18005,0.542234 0.20807,1.364044 0.37734,2.722809 0.82188,4.035761 0.79789,1.880542 3.02803,4.387795 5.272,3.656568 1.12476,-0.598114 2.16805,-1.35269 3.20935,-2.085641 1.17384,-0.76957 2.13505,-1.724324 2.73367,-2.99665 0.40254,-1.068157 0.67722,-1.482495 1.7834,-1.78807 0.35793,-0.01161 0.43892,-0.05044 0.77388,0.07308 0.1168,0.04307 0.44077,0.231511 0.33266,0.169778 -5.52226,-3.153193 -3.43637,-2.134124 -2.38956,-1.212053 0.60169,0.612229 1.10975,1.306906 1.50713,2.066673 0.36517,0.749533 0.76613,1.481291 1.15778,2.21728 1.1852,2.146485 3.18589,2.836685 5.34287,4.091874 0.976,0.19522 1.51045,-0.573479 2.09294,-1.222897 0,0 -3.36822,-2.042591 -3.36822,-2.042591 v 0 c -0.52423,0.566103 -0.97306,1.187421 -1.7986,0.790999 5.57537,3.30568 2.29672,1.685753 1.33425,-0.0024 -0.40422,-0.724212 -0.78069,-1.464397 -1.16497,-2.199005 -0.35957,-0.808175 -0.87133,-1.527355 -1.45537,-2.190194 -1.39348,-1.553202 -3.49445,-3.127436 -5.62736,-2.757958 -1.08615,0.400428 -1.56464,0.975666 -1.94218,2.070846 -0.55373,1.214009 -1.48847,2.10707 -2.59863,2.835634 -1.01149,0.690748 -2.02438,1.45913 -3.16476,1.914425 -1.49594,-0.0085 -0.4201,-0.05468 2.75481,1.852581 0.1197,0.07191 -0.24791,-0.134075 -0.35189,-0.227277 -0.40501,-0.363041 -0.6325,-0.886455 -0.87764,-1.356853 -0.50319,-1.289698 -0.70147,-2.639179 -0.82884,-4.011826 -0.031,-0.119354 -0.25565,-1.076352 -0.37479,-1.167353 -0.20816,-0.158993 -3.1729,-2.732103 -4.75994,-2.668973 -0.22864,0.0091 -0.45116,0.07681 -0.67673,0.11521 -0.2335,0.10197 -0.48104,0.176435 -0.70048,0.305911 -0.23308,0.137528 -0.43348,0.32416 -0.64769,0.489559 -0.89675,0.692419 -1.78372,1.397939 -2.70818,2.053836 z" />
    <path
       style="fill:#f8f8ff;stroke-width:0.264583;fill-opacity:1"
       id="path15"
       d="m 35.465874,92.357172 c 0.543756,-1.548958 1.530064,-2.895905 2.477069,-4.219454 0.965348,-1.358643 2.18485,-2.358956 3.790926,-2.805551 1.107607,-0.239734 2.258999,-0.216874 3.305643,0.233825 -5.707668,-3.12842 -3.153732,-2.289024 -2.540611,-1.04826 0.227073,0.459525 0.355137,0.976656 0.52392,1.458727 0.648803,1.574575 1.71632,2.924598 2.798527,4.22143 1.483625,1.683615 3.32641,2.447827 5.425332,3.47309 0.216296,0.105653 1.348382,0.185417 1.52519,0.201655 1.801437,0.05682 3.63582,0.26516 5.384625,-0.263938 1.1751,-0.667261 1.584788,-2.008825 2.08221,-3.187917 0.304856,-0.690404 0.633302,-1.369737 0.94297,-2.057961 0.09579,-0.212889 0.421082,-0.985139 0.578059,-1.19653 0.138144,-0.186034 0.324602,-0.330761 0.4869,-0.496142 1.384551,-1.061019 3.104967,-1.553263 4.823933,-1.689518 0.501584,0.03775 0.738928,0.01262 1.199089,0.198461 0.143616,0.058 0.539094,0.305269 0.403148,0.231048 -4.691882,-2.561588 -3.253247,-2.474204 -2.654636,-0.943287 0.285578,1.219168 0.583981,2.433634 0.955535,3.629736 0.377188,0.961091 0.77212,1.922584 1.254202,2.836492 0.0954,0.123376 0.173966,0.261832 0.286192,0.370126 0.124177,0.119824 0.265763,0.223361 0.416292,0.307734 2.211078,1.239316 2.942178,2.460488 4.938851,2.04188 0,0 -3.216268,-2.273173 -3.216268,-2.273173 v 0 c -0.153556,0.0063 -0.307726,0.03413 -0.460671,0.01905 -0.163981,-0.01617 -0.618215,-0.203949 -0.481478,-0.111998 0.933916,0.628025 1.94414,1.135237 2.896013,1.735693 0.139417,0.08795 -0.314368,-0.10822 -0.454263,-0.195398 -0.122865,-0.07657 -0.215858,-0.192971 -0.323784,-0.289457 -0.539909,-0.865989 -0.865074,-1.848228 -1.301639,-2.768293 -0.398132,-1.18179 -0.714732,-2.39268 -0.948314,-3.617804 -0.46069,-2.020302 -1.379226,-1.65396 -3.993653,-3.192819 -0.497372,-0.292756 -1.1552,-0.234463 -1.698889,-0.240522 -1.783665,0.235611 -3.55204,0.775941 -4.974969,1.916464 -0.185613,0.19535 -0.397589,0.368673 -0.556842,0.586047 -0.12728,0.173733 -0.201657,0.38077 -0.294008,0.575331 -0.425431,0.896276 -0.791874,1.821243 -1.225965,2.713784 -0.454898,1.0556 -0.823727,2.329838 -1.915499,2.881619 -1.718503,0.458414 -3.519439,0.261189 -5.273434,0.153482 -2.067041,-0.297323 -2.664909,-1.05446 1.307862,1.401826 0.167743,0.103711 -0.353697,-0.177358 -0.516199,-0.289097 -0.403254,-0.277288 -0.682681,-0.592701 -1.027925,-0.938802 -1.079598,-1.253543 -2.153907,-2.555714 -2.826258,-4.081338 -1.193049,-3.186848 -0.112347,-1.930083 -4.650592,-4.495531 -1.127191,-0.323508 -2.305867,-0.336018 -3.439935,-0.01892 -1.634379,0.556987 -2.882053,1.637191 -3.872717,3.050894 -0.975397,1.340258 -1.994405,2.690466 -2.605788,4.24465 z" />
    <path
       style="fill:#f8f8ff;stroke-width:0.264583;fill-opacity:1"
       id="path16"
       d="m 127.72098,88.841158 c 1.42168,-1.014902 2.65408,-2.204701 3.7352,-3.572102 0.90156,-1.152861 1.69369,-2.384095 2.53135,-3.582522 1.01101,-1.1406 2.32029,-1.71151 3.7652,-2.078649 0.59471,-0.08955 1.2128,-0.12564 1.78257,0.110271 0.13658,0.05655 0.51184,0.295949 0.38202,0.225245 -3.15833,-1.720123 -3.77724,-2.623291 -2.83879,-1.38421 0.3526,0.971796 0.43562,2.011172 0.73146,3.007902 0.34672,1.119984 0.52289,2.255869 1.08001,3.296804 0.58736,0.751308 1.29858,1.450527 2.14482,1.909982 4.16944,2.263732 2.60141,1.979266 4.89182,2.257107 1.47452,0.06034 2.68717,-0.611346 3.76277,-1.553837 0.8296,-0.94815 1.36358,-2.090155 1.92782,-3.203107 0.33141,-0.466198 0.51666,-1.118282 0.94082,-1.520168 0.67953,-0.643835 1.69296,-0.978639 2.53531,-1.324679 0.8241,-0.246039 1.71093,-0.524603 2.58705,-0.403429 0.94148,0.130215 5.06819,2.657258 -1.84611,-1.185608 0.79771,0.822134 1.11552,2.005308 1.53486,3.051124 0.36255,0.971172 0.64874,1.960502 1.1004,2.895428 0,0 3.5754,1.613797 3.5754,1.613797 v 0 c -0.49333,-0.91151 -0.77527,-1.892064 -1.12204,-2.865501 -0.43565,-1.094155 -0.78929,-2.253694 -1.42994,-3.244125 -3.60989,-2.149303 -3.97694,-3.233671 -7.61401,-2.007909 -0.92434,0.393155 -1.96609,0.766847 -2.7073,1.480394 -0.43318,0.417015 -0.61965,1.087567 -0.96102,1.567936 -0.54349,1.065308 -1.04798,2.171523 -1.85531,3.069884 -1.02265,0.875758 -2.16827,1.436203 -3.55122,1.28483 -1.7788,-0.35546 -0.83948,-0.259167 1.87747,1.498748 0.20314,0.131432 -0.42772,-0.227735 -0.62994,-0.360569 -0.58299,-0.382952 -1.09263,-0.868656 -1.57652,-1.366763 -0.69261,-1.078857 -0.74092,-2.020158 -1.10996,-3.213973 -0.34094,-1.013029 -0.46047,-2.044729 -0.67604,-3.083791 -0.80502,-1.681368 -0.13796,-0.472633 -3.86029,-2.670764 -0.67275,-0.39728 -1.58691,-0.204272 -2.29726,-0.09295 -1.50519,0.436478 -2.8789,1.09393 -3.92629,2.301076 -0.8201,1.200001 -1.59791,2.429396 -2.49716,3.573878 -1.05807,1.342109 -2.25809,2.520214 -3.70676,3.44474 z" />
    <path
       style="fill:#f8f8ff;stroke-width:0.264583;fill-opacity:1"
       id="path17"
       d="m 31.474023,105.94947 c 0.664708,-1.10253 1.537317,-2.01181 2.591512,-2.74202 1.199915,-0.83273 2.507131,-1.42283 3.927089,-1.74758 0.208298,-0.0139 0.416557,-0.055 0.624898,-0.0417 0.635759,0.0405 6.403245,2.62494 -2.038308,-1.31719 -0.168277,-0.0786 0.258453,0.26815 0.369406,0.41709 0.117174,0.15728 0.208436,0.3323 0.312653,0.49845 0.621437,1.28852 1.028856,2.67262 1.494814,4.02409 0.160795,0.43131 0.290862,0.82638 0.506346,1.23344 0.789784,1.49195 2.790545,1.94155 4.218514,2.46073 0.131106,0.0477 0.161015,-0.22785 0.241522,-0.34178 0.342498,-1.1459 0.857713,-2.18919 1.552411,-3.15869 0.764583,-0.89007 1.314183,-1.93021 1.993916,-2.87743 0.877536,-0.99099 2.133092,-1.35884 3.412993,-1.42299 0.19245,0.0266 0.38994,0.0286 0.577344,0.0799 0.185026,0.0506 0.353658,0.14866 0.53049,0.22299 -0.970497,-0.54479 -1.923785,-1.12143 -2.911486,-1.634355 -0.151484,-0.07867 0.283181,0.197239 0.39406,0.327015 0.293294,0.34328 0.406284,0.73452 0.571193,1.14551 0.307978,1.24779 0.807138,2.42831 1.248654,3.63067 0.342778,0.84557 0.668197,1.73503 1.278847,2.42716 1.219415,0.66871 2.395157,1.4241 3.658246,2.00613 0.116533,0.0537 0.231696,-0.11069 0.350626,-0.15885 0.696256,-0.28193 1.380723,-0.57115 2.0584,-0.8982 1.072782,-0.65455 1.920243,-1.55829 2.614041,-2.59326 0.703545,-1.12134 1.20904,-1.99708 2.486509,-2.48355 0.857546,-0.2086 1.75278,-0.32582 2.625783,-0.1296 1.128678,0.25369 3.596598,1.87559 -2.420482,-1.4714 0.889206,0.71571 1.269378,1.91501 1.626023,2.9658 0.308745,1.14491 0.901163,2.12885 1.660763,3.02576 2.115085,1.8723 4.566925,3.08155 7.324175,2.79463 1.283118,-0.23612 2.154277,-1.21559 2.865474,-2.24182 0.643197,-1.01335 1.222129,-2.0621 1.997935,-2.98196 0.701889,-0.84806 1.641224,-1.31608 2.731013,-1.38076 0.129445,0.0451 0.267695,0.0703 0.388337,0.13544 0.112866,0.0609 0.415677,0.29825 0.302689,0.23755 -1.033375,-0.55517 -2.026259,-1.18473 -3.068344,-1.72339 -0.123401,-0.0638 0.20225,0.19069 0.297953,0.29138 0.3137,0.33004 0.299863,0.33869 0.567933,0.71344 0.469355,0.66632 0.480827,1.55745 0.945849,2.22489 0.102835,0.1476 0.240485,0.2676 0.36073,0.40139 2.171713,1.41639 4.078774,2.94176 6.67585,2.51193 1.041887,-0.15213 1.881042,-0.73028 2.674789,-1.38121 0.813874,-0.68274 1.557242,-1.47906 2.548898,-1.89321 1.150652,-0.21746 2.206705,0.14532 3.194262,0.71075 -0.919261,-0.52523 -1.830999,-1.06384 -2.757776,-1.57569 -0.202782,-0.11199 0.390173,0.24984 0.584745,0.37555 0.416235,0.26895 0.940022,0.62014 1.371388,0.86614 4.13901,2.36039 2.604696,1.78217 4.80852,2.53854 0.95537,0.19293 1.83772,0.78758 2.82257,0.85566 0.46704,0.0323 0.6638,-0.071 1.0944,-0.20443 1.38243,-0.76133 2.38329,-2.04996 3.43556,-3.19847 1.20985,-1.35403 2.17697,-1.42296 3.90677,-1.6046 0.35438,5.3e-4 1.08436,-0.0347 1.44848,0.0962 0.19816,0.0713 0.72186,0.43311 0.53496,0.33608 -0.94246,-0.48922 -1.82158,-1.10831 -2.80312,-1.51346 -0.22757,-0.0939 0.33427,0.36236 0.48535,0.55675 0.18204,0.23425 0.3418,0.48499 0.51271,0.72748 0.48142,0.71796 0.94873,1.44547 1.44669,2.15225 0.234,0.33213 0.61362,0.90917 0.97124,1.1336 1.31982,0.82826 2.69655,1.56217 4.04482,2.34326 1.25349,0.35775 2.63611,0.77953 3.96186,0.62557 0.22397,-0.026 0.43949,-0.10098 0.65923,-0.15148 1.39813,-0.50796 2.14084,-1.784 3.00346,-2.90746 0.96308,-1.42709 2.13053,-1.86147 3.74959,-2.1906 0.8959,-0.12958 1.81939,-0.25514 2.71164,-0.023 0.99629,0.25924 4.32781,2.30284 -2.48152,-1.46853 0.11986,0.10865 0.25396,0.20341 0.35957,0.32596 0.26786,0.31083 0.57952,0.86808 0.79263,1.19717 0.44146,0.6817 0.91924,1.32009 1.43556,1.94592 1.44416,1.40617 3.63134,2.8107 5.70491,3.16062 0.52247,0.0882 1.06506,0.10675 1.59195,0.13948 2.01057,-0.15337 3.16535,-0.88099 4.42341,-2.3881 0.74521,-0.89872 0.80341,-2.20087 1.74336,-2.95783 0.19586,-0.15772 0.43001,-0.26083 0.64502,-0.39125 0.72394,-0.32231 1.41256,-0.59627 2.2009,-0.32561 0.23446,0.0805 0.88204,0.45253 0.66598,0.33099 -3.12175,-1.75614 -3.44135,-2.09437 -2.05666,-0.93715 1.13316,1.12907 1.93476,2.52282 3.06389,3.65602 3.04782,2.34923 4.71056,2.86528 8.02201,3.03305 1.72466,0.047 2.55233,-0.64786 3.1895,-2.18028 0.0333,-0.0951 0.32314,-0.95089 0.40116,-1.06822 0.50871,-0.76497 1.76135,-0.93695 2.56381,-1.12966 1.09163,-0.12531 0.55631,-0.1024 1.60549,-0.0788 0,0 -3.16015,-2.2924 -3.16015,-2.2924 v 0 c -1.07911,0.0393 -0.52955,-0.0121 -1.64778,0.16366 -0.97018,0.25754 -2.20247,0.50378 -2.79576,1.41967 -0.0763,0.11775 -0.35402,0.95726 -0.39254,1.06985 -0.57579,1.44599 -1.33561,1.86041 -2.90374,1.78659 -0.81708,-0.0547 -1.63162,-0.10997 -2.43315,-0.29126 -0.2726,-0.0617 -1.0292,-0.39188 -0.80923,-0.21946 0.77465,0.60715 3.97192,2.39737 1.97709,1.27272 -1.21202,-1.07009 -1.99167,-2.48228 -3.07213,-3.6726 -1.67095,-1.56225 -0.82396,-0.85387 -4.62048,-2.94938 -0.42772,-0.23608 -1.01627,-0.32563 -1.49695,-0.26488 -0.57259,0.0724 -1.06583,0.33843 -1.5828,0.56759 -0.23564,0.15825 -0.4922,0.28909 -0.7069,0.47474 -0.91497,0.79118 -1.05968,2.03035 -1.75523,2.96968 -1.15022,1.38601 -2.34934,2.08318 -4.20226,2.08739 -0.74435,-0.0712 -1.4773,-0.13181 -2.18445,-0.39585 -0.20242,-0.0756 -0.77403,-0.3807 -0.5916,-0.26491 3.59273,2.28036 3.4223,2.18442 2.21224,1.19878 -0.53305,-0.59843 -1.02872,-1.21494 -1.4648,-1.88953 -0.26256,-0.40618 -0.46672,-0.84829 -0.73084,-1.25346 -0.0957,-0.14676 -0.2132,-0.27802 -0.31981,-0.41703 -3.4945,-2.0085 -3.70269,-2.77932 -7.1112,-2.16751 -1.73226,0.41475 -2.84477,0.91168 -3.89354,2.41994 -0.81755,1.04515 -1.51527,2.26705 -2.8647,2.66135 -1.50506,0.22976 -3.0483,-0.0997 -4.44485,-0.67505 5.86303,3.53885 2.67909,1.77769 2.04595,1.11985 -0.75546,-0.78494 -1.24134,-1.88984 -1.90426,-2.74818 -0.004,-0.006 -0.86482,-1.33458 -0.93199,-1.38149 -1.24863,-0.87212 -2.57586,-1.62727 -3.89304,-2.39193 -0.18875,-0.10957 -0.40128,-0.1802 -0.61488,-0.22503 -0.41551,-0.0872 -1.07823,-0.0305 -1.48166,-0.0138 -1.67304,0.21252 -2.95302,0.46067 -4.06265,1.8363 -0.99462,1.09989 -1.96247,2.36612 -3.34437,2.98526 -1.33642,0.25621 -2.487537,-0.45427 -3.747012,-0.8208 -1.692344,-0.68166 -0.961451,-0.43087 1.902859,1.27034 0.230537,0.13692 -0.464293,-0.26852 -0.692184,-0.40981 -1.727941,-1.07125 -3.224559,-2.38619 -5.202687,-3.11481 -1.085713,-0.51205 -2.237941,-0.82236 -3.41929,-0.42946 -0.978202,0.50116 -1.767361,1.26697 -2.602831,1.9717 -0.760081,0.60141 -1.560875,1.09955 -2.549305,1.20406 -0.504251,0.0438 -0.560491,0.075 -1.07496,0.01 -1.555123,-0.19647 -4.304874,-1.93687 1.257454,1.23133 -0.136425,-0.0904 -0.29518,-0.15377 -0.409268,-0.27107 -0.553022,-0.5686 -0.532657,-1.59532 -0.937017,-2.25123 -1.071388,-1.85881 -3.181606,-3.29596 -5.310246,-3.51875 -1.15153,0.1967 -2.139598,0.71488 -2.8811,1.63963 -0.770597,0.93798 -1.379226,1.9793 -2.017758,3.00918 -0.663874,0.94713 -1.45805,1.81269 -2.666468,1.95706 -0.721625,0.0344 -1.37867,0.01 -2.085819,-0.16455 -0.238411,-0.0587 -0.905306,-0.35495 -0.705273,-0.21256 0.02064,0.0147 4.204581,2.55195 2.275316,1.38193 -0.795978,-0.8251 -1.41515,-1.76643 -1.734111,-2.87876 -0.353981,-1.11828 -0.765074,-2.29942 -1.501177,-3.22161 -3.27519,-1.84458 -3.894677,-2.911053 -7.150063,-1.99243 -1.317987,0.61747 -1.833803,1.47918 -2.596435,2.67609 -0.680202,0.96029 -1.46085,1.83741 -2.502945,2.41907 -0.537322,0.24729 -1.077831,0.49912 -1.638282,0.69138 -0.136813,0.0469 -0.273897,0.0968 -0.416171,0.12281 -0.07925,0.0145 -0.309367,-0.0461 -0.241686,-0.002 1.031772,0.66623 2.108948,1.25936 3.163424,1.88904 -0.759206,-0.49073 -1.004858,-1.47577 -1.38208,-2.25391 -0.434168,-1.20972 -0.994346,-2.37546 -1.264706,-3.6401 -0.08655,-0.257 -0.333719,-1.04183 -0.482457,-1.29297 -0.09406,-0.15882 -0.201509,-0.32499 -0.358547,-0.422 -1.837296,-1.134998 -3.068915,-2.32825 -5.05406,-2.351594 -1.362501,0.167126 -2.708193,0.614267 -3.624731,1.693994 -0.658948,0.95985 -1.203865,1.99672 -1.961888,2.8904 -0.693679,0.95642 -1.25267,1.98604 -1.59389,3.12372 -0.950629,1.06935 -0.134652,0.0676 3.14125,2.04192 0.09554,0.0576 -0.219353,-0.066 -0.305229,-0.13722 -0.46777,-0.38783 -0.625155,-1.04388 -0.852186,-1.57243 -0.463116,-1.3692 -0.917567,-2.74588 -1.450551,-4.08781 -0.06252,-0.11745 -0.481156,-0.94499 -0.613347,-1.03449 -1.995075,-1.3507 -3.251827,-2.695215 -5.46808,-2.344917 -1.441728,0.385535 -2.772362,1.028047 -4.004977,1.872947 -1.069678,0.78545 -1.970831,1.731 -2.705055,2.84009 z" />
    <path
       style="fill:#f8f8ff;stroke-width:0.264583;fill-opacity:1"
       id="path18"
       d="m 31.909903,121.99732 c 0.757486,-1.01549 1.504744,-2.04269 2.489822,-2.85616 0.726974,-0.60034 1.006893,-0.70899 1.816544,-1.15956 1.185707,-0.5324 2.523123,-1.12172 3.845031,-0.71896 0.201838,0.0615 0.382434,0.1784 0.573651,0.2676 -5.368639,-2.98553 -3.128166,-1.95988 -2.274945,-1.12319 0.376544,0.36925 0.65302,0.79916 0.988729,1.20248 0.450728,0.5415 0.652163,0.72797 1.14119,1.22836 1.988542,1.76626 4.412226,3.52712 7.151944,3.36968 1.291418,-0.20535 2.219661,-0.96457 3.011993,-1.95443 0.885158,-1.34805 1.856616,-1.95062 3.389164,-2.33734 1.227924,-0.10656 2.722764,-0.42958 3.947658,-0.2025 0.243914,0.0452 0.474183,0.14597 0.711276,0.21896 0.227399,0.10308 0.896049,0.43809 0.682197,0.30924 -0.907251,-0.54666 -1.830422,-1.06755 -2.765735,-1.56467 -0.174527,-0.0928 0.330698,0.21879 0.47911,0.34932 0.416021,0.36589 0.621139,0.78731 0.821799,1.28917 0.211315,0.52619 0.380648,1.06057 0.514469,1.61064 0,0 3.542239,1.70932 3.542239,1.70932 v 0 c -0.112739,-0.56854 -0.268584,-1.11469 -0.493207,-1.65123 -0.139168,-0.46717 -0.146183,-0.60017 -0.400394,-1.02032 -0.199237,-0.32928 -0.472869,-0.68022 -0.809353,-0.88281 -3.604982,-2.17049 -2.629971,-1.76457 -4.67307,-2.52294 -0.254336,-0.0524 -0.505087,-0.12701 -0.763006,-0.15713 -1.328912,-0.15518 -2.710489,0.12936 -4.01956,0.30151 -1.563259,0.4661 -2.595375,1.165 -3.518525,2.53922 -0.754364,0.88917 -1.631894,1.56549 -2.835526,1.66671 -0.57105,-0.0107 -0.683252,0.0199 -1.254382,-0.13113 -0.228531,-0.0604 -0.86547,-0.36399 -0.670933,-0.2297 0.869262,0.60005 1.804969,1.09768 2.71213,1.63874 0.198573,0.11843 -0.400222,-0.23343 -0.586197,-0.37079 -0.201219,-0.14862 -0.381725,-0.32341 -0.572588,-0.48511 -0.33225,-0.32659 -0.855895,-0.82695 -1.157854,-1.18171 -0.341349,-0.40104 -0.605689,-0.86388 -0.949798,-1.26255 -1.10685,-1.28235 -3.361087,-2.15186 -4.435261,-2.77427 -1.7858,-0.53717 -2.957898,-0.0331 -4.575759,0.76202 -0.83796,0.49397 -1.100585,0.60291 -1.858201,1.2409 -0.989629,0.83337 -1.763707,1.85963 -2.588646,2.84448 z" />
    <path
       style="fill:#f8f8ff;stroke-width:0.264583;fill-opacity:1"
       id="path19"
       d="m 34.031219,137.00112 c 0.652928,-1.17753 1.483717,-2.21883 2.713095,-2.83023 0.363006,-0.18053 0.751253,-0.30508 1.126879,-0.45763 1.905074,-0.60029 3.912428,-1.09513 5.862,-0.4563 -5.081347,-2.86608 -2.823901,-2.10626 -2.306434,-0.59338 0.215641,0.63046 0.29649,1.32295 0.439658,1.9723 0.09063,0.43412 0.272971,0.78467 0.555583,1.11503 0,0 3.688998,1.45803 3.688998,1.45803 v 0 c -0.422532,-0.16293 -0.579062,-0.43381 -0.714608,-0.87478 -0.94642,-3.87408 0.06974,-2.79044 -4.772435,-5.46483 -2.018096,-0.44053 -4.024558,0.0663 -5.951003,0.70723 -0.392819,0.16632 -0.799317,0.30347 -1.178459,0.49897 -1.268278,0.654 -2.13718,1.73777 -2.880926,2.92295 z" />
    <path
       style="fill:#f8f8ff;stroke-width:0.264583;fill-opacity:1"
       id="path20"
       d="m 145.13311,126.19578 c 0.89437,-0.74513 1.88277,-1.32403 2.95494,-1.76994 0.54223,-0.20178 1.06706,-0.368 1.65239,-0.28728 1.03157,0.14225 4.62559,2.40729 -1.89654,-1.23872 0.61728,0.45841 0.81558,1.20075 1.19548,1.828 0.28312,0.46745 0.36708,0.52414 0.72718,0.92641 1.85649,1.55056 4.0371,2.96906 6.49663,2.92037 1.1726,-0.14721 1.79651,-1.17889 2.48334,-2.0227 0.87507,-0.96247 2.10989,-1.48827 3.32342,-1.88513 1.08805,-0.32358 2.19838,-0.4351 3.30459,-0.16491 1.29984,0.63559 1.49884,0.742 -2.67477,-1.53913 -0.10893,-0.0595 0.20666,0.13873 0.30046,0.22004 0.35317,0.30616 0.60845,0.67127 0.85905,1.06046 0.24473,0.42146 0.34719,0.88704 0.44981,1.35654 0,0 3.541,1.72052 3.541,1.72052 v 0 c -0.0842,-0.5052 -0.17509,-1.00599 -0.3871,-1.47744 -1.06459,-1.95051 -3.03335,-3.14601 -5.23309,-3.71757 -1.15397,-0.16212 -2.29483,-0.0248 -3.40121,0.34725 -1.26162,0.45727 -2.55839,1.02691 -3.45412,2.06124 -0.62321,0.77314 -1.19289,1.69668 -2.28926,1.72303 -0.54453,-0.0321 -1.05971,-0.0959 -1.57893,-0.27668 -0.17311,-0.0603 -0.6633,-0.30778 -0.50811,-0.21024 0.78235,0.4917 4.19485,2.5145 2.39635,1.39356 -0.32845,-0.31152 -0.50666,-0.44743 -0.7645,-0.8242 -0.43456,-0.63501 -0.58817,-1.43479 -1.1247,-2.00767 -1.2786,-0.74708 -2.54024,-1.52398 -3.83581,-2.24122 -0.8972,-0.49669 -1.97004,-0.18803 -2.84886,0.15953 -1.08212,0.48477 -2.07428,1.10019 -3.02359,1.80991 z" />
    <path
       style="fill:#f8f8ff;stroke-width:0.264583;fill-opacity:1"
       id="path21"
       d="m 154.1629,137.94915 c 0.22233,-1.12454 0.40464,-2.01773 1.3889,-2.69465 1.09998,-0.44825 2.33298,-0.45598 3.4864,-0.24678 1.37167,0.53535 1.96108,0.79647 -2.24609,-1.35238 -0.19977,-0.10203 0.36632,0.26022 0.53571,0.40728 0.48112,0.41769 0.85492,0.91305 1.21298,1.43405 0.62728,0.95747 1.03972,2.04398 1.89842,2.82445 -0.1725,-0.22501 3.50899,3.08966 4.92601,1.99463 0.24695,-0.19084 0.32501,-0.40209 0.46725,-0.66603 0.19876,-0.73464 0.30573,-1.47997 0.52397,-2.21292 0,0 -3.43747,-1.88203 -3.43747,-1.88203 v 0 c -0.22051,0.70284 -0.3734,1.40856 -0.51911,2.12732 -0.0914,0.17136 -0.13651,0.32911 -0.32165,0.4233 -1.07968,0.54928 -4.99344,-2.72049 2.02494,1.67441 -1.01729,-0.62769 -1.35053,-1.73402 -1.97066,-2.70388 -1.33852,-2.23746 -3.7101,-3.75914 -6.23406,-4.41916 -1.23492,-0.13579 -2.56007,-0.11342 -3.67791,0.48951 -0.99919,0.79766 -1.26515,1.70442 -1.53706,2.92128 z" />
    <path
       style="fill:#f8f8ff;stroke-width:0.264583;fill-opacity:1"
       id="path22"
       d="m 62.895868,56.210175 c 0.10159,-0.134569 0.184478,-0.285562 0.304771,-0.403711 0.36118,-0.354748 0.716137,-0.51281 1.15824,-0.754904 0.843452,-0.46187 1.639133,-0.763273 2.563043,-1.032399 0.899511,-0.222703 1.865272,-0.402789 2.791978,-0.206825 0.218834,0.04628 0.820436,0.348927 0.62947,0.232471 -3.440316,-2.098029 -3.593568,-2.348484 -2.475452,-1.17007 0.834305,1.450822 1.599896,2.922085 2.75971,4.145013 1.789531,1.362541 3.762211,2.960222 6.08538,3.075289 0.686178,0.03399 0.905851,-0.03396 1.573919,-0.137231 1.686308,-0.489162 2.319758,-1.136137 2.926386,-2.74452 0.397756,-1.488882 0.458206,-3.031964 0.793682,-4.537615 0.546444,-1.725941 1.488326,-1.941785 3.1346,-2.293869 1.290482,-0.11163 2.829507,-0.543004 4.071917,0.06145 0.184343,0.08969 0.342643,0.225168 0.513966,0.337751 -4.292917,-2.558354 -2.874351,-1.68788 -1.765189,-0.03099 0.526703,0.786805 1.037691,1.583095 1.570778,2.365743 0.838042,1.160896 1.931218,2.0369 3.131376,2.791203 2.772092,1.604291 4.057097,3.087468 7.027452,2.516627 1.431525,-0.769236 2.387455,-2.133402 3.200015,-3.498588 0.81099,-1.63826 1.71281,-3.227858 2.87651,-4.641681 1.04844,-1.167598 2.59004,-1.181454 4.05475,-1.275363 0.87417,0.01691 1.79163,0.01625 2.63105,0.305957 0.21557,0.0744 0.81237,0.414107 0.61457,0.300609 -3.26518,-1.87356 -3.56603,-2.174256 -2.18546,-1.059252 1.32485,1.31885 2.55742,2.735297 3.60675,4.283538 0.37562,0.561001 0.71085,1.16994 1.17004,1.671201 1.24746,1.361757 4.08507,2.501006 5.18968,3.099797 1.33054,0.398495 2.71462,0.611722 4.08979,0.371933 1.04363,-0.140398 1.77643,-0.697807 2.43706,-1.471726 0.74021,-0.96143 1.50778,-1.894964 2.34788,-2.771442 0.83469,-0.875569 1.90413,-1.214424 3.06759,-1.369012 0.45836,-0.03523 0.83231,-0.08841 1.29387,-0.02267 1.31514,0.187288 4.84531,2.422919 -1.02422,-0.872519 1.10072,0.782384 1.97353,1.821598 3.05022,2.63435 1.51334,0.697524 3.29223,2.315943 5.17268,2.669027 0.49513,0.09297 1.26935,0.136493 1.75695,0.173567 0,0 -3.12082,-2.311551 -3.12082,-2.311551 v 0 c -0.69234,-0.07509 -1.07694,-0.08973 -1.73989,-0.258847 -1.31589,-0.335666 -3.70298,-1.968124 1.57603,1.166275 -1.13155,-0.753242 -1.99464,-1.795362 -3.04541,-2.647389 -1.40322,-0.826145 -3.74489,-2.71521 -5.79068,-2.859984 -0.4962,-0.03512 -0.85093,0.02133 -1.34011,0.07091 -1.22601,0.214572 -2.3327,0.655486 -3.20088,1.5875 -0.84624,0.879297 -1.61326,1.82409 -2.37761,2.774069 -0.6286,0.695629 -1.31133,1.145804 -2.27379,1.246378 -1.33798,0.152344 -2.68007,-0.07603 -3.94594,-0.525384 6.50398,3.9882 1.99402,1.346944 1.48445,0.856602 -0.48808,-0.469651 -0.83217,-1.093427 -1.20544,-1.648671 -1.0371,-1.577298 -2.28294,-2.993012 -3.5613,-4.378622 -2.53319,-2.337429 -4.65927,-3.353085 -7.84133,-3.279547 -1.54833,0.120163 -3.18997,0.248325 -4.24097,1.536451 -1.14213,1.450885 -2.06017,3.046439 -2.894564,4.691491 -0.771181,1.253911 -1.634765,2.605847 -3.043875,3.197146 -0.631391,0.08355 -1.217403,0.114329 -1.845979,-0.03127 -1.289997,-0.298805 -3.639884,-2.036051 1.680694,1.183489 -1.203865,-0.729999 -2.333241,-1.527318 -3.213441,-2.650535 -0.544592,-0.778111 -1.06934,-1.565852 -1.584267,-2.363944 -0.0075,-0.01156 -0.903116,-1.425418 -0.993693,-1.491937 -1.232501,-0.905108 -2.565908,-1.664105 -3.848862,-2.496159 -0.192484,-0.08846 -0.376513,-0.198297 -0.577453,-0.265364 -1.324107,-0.441944 -2.817553,-0.0241 -4.148106,0.117062 -1.778272,0.429895 -2.799122,0.805265 -3.394535,2.652491 -0.317029,1.491633 -0.394142,3.012553 -0.760757,4.490733 -0.552693,1.47501 -1.127421,2.019004 -2.696493,2.389968 -0.775271,0.08195 -1.493091,0.119142 -2.25434,-0.104362 -0.239889,-0.07043 -0.907126,-0.411184 -0.698359,-0.273614 0.668919,0.440791 4.144745,2.501837 2.089933,1.186572 -1.246108,-1.155346 -2.016856,-2.577817 -2.765142,-4.086194 -1.097185,-1.806455 -0.337892,-0.771506 -4.226809,-2.772063 -0.901721,-0.463867 -2.607768,-0.02003 -3.517381,0.182462 -1.544312,0.47557 -3.225022,1.087779 -4.256027,2.39794 z" />
  </g>
  <g
     inkscape:label="Layer 1"
     inkscape:groupmode="layer"
     id="layer1">
    <circle
       style="fill:#c084fc;stroke-width:0.264583;stroke:#c084fc;stroke-opacity:1;fill-opacity:1"
       id="path2"
       cx="100"
       cy="75"
       r="25" />
    <path
       d="M 163.65823,170.94202 A 65,75 0 0 0 100.0001,110.94465 65,75 0 0 0 36.42465,171.03969 85,85 0 0 0 100.0001,200.0002 85,85 0 0 0 163.65823,170.94202 Z"
       style="stroke-width:0.264583;fill:#c084fc;fill-opacity:1"
       id="path8" />
    <circle
       style="fill:#313638;stroke-width:0.264583;fill-opacity:1"
       id="path11"
       cx="120"
       cy="140"
       r="15" />
    <circle
       style="fill:#c084fc;stroke-width:0.264583;stroke:#c084fc;stroke-opacity:1;fill-opacity:1"
       id="path12"
       cx="120"
       cy="140"
       r="13" />
    <rect
       style="fill:#313638;stroke-width:0.264583;fill-opacity:1"
       id="rect12"
       width="15"
       height="1"
       x="112.5"
       y="139.5" />
    <rect
       style="fill:#313638;stroke-width:0.264583;fill-opacity:1"
       id="rect12-5"
       width="1"
       height="15"
       x="119.5"
       y="133" />
  </g>
</svg>
